<?xml version="1.0" encoding="UTF-8"?>
<!DOCTYPE svg PUBLIC "-//W3C//DTD SVG 1.1//EN" "http://www.w3.org/Graphics/SVG/1.1/DTD/svg11.dtd">
<svg xmlns="http://www.w3.org/2000/svg" version="1.1" width="520px" height="185px" style="shape-rendering:geometricPrecision; text-rendering:geometricPrecision; image-rendering:optimizeQuality; fill-rule:evenodd; clip-rule:evenodd" xmlns:xlink="http://www.w3.org/1999/xlink">
<g><path style="opacity:0.945" fill="#fefffe" d="M 129.5,-0.5 C 135.833,-0.5 142.167,-0.5 148.5,-0.5C 148.5,60.8333 148.5,122.167 148.5,183.5C 142.167,183.5 135.833,183.5 129.5,183.5C 129.5,122.167 129.5,60.8333 129.5,-0.5 Z"/></g>
<g><path style="opacity:0.956" fill="#fefffe" d="M 66.5,184.5 C 59.8333,184.5 53.1667,184.5 46.5,184.5C 20.5421,177.541 4.87541,160.875 -0.5,134.5C -0.5,127.167 -0.5,119.833 -0.5,112.5C 9.04091,76.4629 32.3742,60.2962 69.5,64C 99.9117,74.6317 114.578,96.1317 113.5,128.5C 81.8333,128.5 50.1667,128.5 18.5,128.5C 22.2962,153.798 36.9628,166.298 62.5,166C 76.2525,162.413 86.2525,154.246 92.5,141.5C 97.7413,143.705 102.908,146.038 108,148.5C 105.37,157.221 100.537,164.721 93.5,171C 85.4974,177.668 76.4974,182.168 66.5,184.5 Z M 50.5,81.5 C 71.4663,80.9837 85.7996,90.4837 93.5,110C 69.1689,110.5 44.8356,110.667 20.5,110.5C 25.2955,95.3699 35.2955,85.7033 50.5,81.5 Z"/></g>
<g><path style="opacity:0.948" fill="#fefefe" d="M 252.5,156.5 C 252.62,157.586 253.287,158.253 254.5,158.5C 260.568,159.713 266.568,161.046 272.5,162.5C 263.546,174.144 251.88,181.477 237.5,184.5C 230.167,184.5 222.833,184.5 215.5,184.5C 182.298,175.619 164.298,153.952 161.5,119.5C 162.784,92.4114 176.118,74.2448 201.5,65C 226.844,59.0065 248.677,65.1731 267,83.5C 267.667,84.8333 267.667,86.1667 267,87.5C 246.5,108 226,128.5 205.5,149C 204.5,149.667 203.5,149.667 202.5,149C 197.787,141.812 197.287,134.312 201,126.5C 213.96,113.706 226.793,100.706 239.5,87.5C 219.859,77.7947 202.692,81.128 188,97.5C 175.852,122.408 181.019,142.908 203.5,159C 220.453,168.369 236.786,167.535 252.5,156.5 Z"/></g>
<g><path style="opacity:0.963" fill="#fefffe" d="M 519.5,63.5 C 519.5,103.5 519.5,143.5 519.5,183.5C 513.5,183.5 507.5,183.5 501.5,183.5C 501.666,177.491 501.499,171.491 501,165.5C 493.445,175.519 483.611,181.852 471.5,184.5C 464.5,184.5 457.5,184.5 450.5,184.5C 415.077,173.838 399.244,149.838 403,112.5C 409.198,83.9679 426.698,67.4679 455.5,63C 474.003,61.0024 489.169,67.1691 501,81.5C 501.499,75.5092 501.666,69.5092 501.5,63.5C 507.5,63.5 513.5,63.5 519.5,63.5 Z M 455.5,81.5 C 478.339,80.8397 492.839,91.5063 499,113.5C 502.812,132.402 497.312,147.902 482.5,160C 455.58,172.457 435.747,165.291 423,138.5C 417.263,116.372 423.763,98.8718 442.5,86C 446.846,84.164 451.179,82.664 455.5,81.5 Z"/></g>
<g><path style="opacity:0.945" fill="#fefffe" d="M 277.5,63.5 C 284.755,63.1868 291.921,63.5201 299,64.5C 312.333,95.1667 325.667,125.833 339,156.5C 352.663,125.668 365.83,94.6682 378.5,63.5C 385.5,63.5 392.5,63.5 399.5,63.5C 383.354,103.467 366.354,143.134 348.5,182.5C 341.944,183.81 335.444,183.81 329,182.5C 311.821,142.812 294.654,103.145 277.5,63.5 Z"/></g>
<g><path style="opacity:0.907" fill="#b4dbc9" d="M 283.5,138.5 C 283.5,135.5 283.5,132.5 283.5,129.5C 277.545,128.242 271.545,127.242 265.5,126.5C 265.552,128.903 265.219,131.236 264.5,133.5C 261.298,133.23 258.298,132.396 255.5,131C 263.667,122.167 271.833,113.333 280,104.5C 284.119,115.689 287.952,127.022 291.5,138.5C 288.911,139.205 286.244,139.205 283.5,138.5 Z"/></g>
<g><path style="opacity:0.998" fill="#b7ddcb" d="M 283.5,138.5 C 282.993,142.083 281.993,145.417 280.5,148.5C 280.854,146.459 280.854,144.626 280.5,143C 275.5,142 270.5,141 265.5,140C 264.663,138.989 264.33,137.822 264.5,136.5C 264.5,135.5 264.5,134.5 264.5,133.5C 265.219,131.236 265.552,128.903 265.5,126.5C 271.545,127.242 277.545,128.242 283.5,129.5C 283.5,132.5 283.5,135.5 283.5,138.5 Z"/></g>
<g><path style="opacity:1" fill="#c0e1d2" d="M 264.5,136.5 C 264.33,137.822 264.663,138.989 265.5,140C 270.5,141 275.5,142 280.5,143C 280.854,144.626 280.854,146.459 280.5,148.5C 280.598,150.553 279.931,152.22 278.5,153.5C 278.5,152.5 278.5,151.5 278.5,150.5C 273.487,149.631 268.487,148.631 263.5,147.5C 262.287,147.253 261.62,146.586 261.5,145.5C 262.331,142.341 263.331,139.341 264.5,136.5 Z"/></g>
<g><path style="opacity:1" fill="#cae5d9" d="M 261.5,145.5 C 261.62,146.586 262.287,147.253 263.5,147.5C 268.487,148.631 273.487,149.631 278.5,150.5C 278.5,151.5 278.5,152.5 278.5,153.5C 278.672,154.492 278.338,155.158 277.5,155.5C 277.5,154.5 277.5,153.5 277.5,152.5C 272.106,152.122 266.773,151.288 261.5,150C 260.748,149.329 260.414,148.496 260.5,147.5C 260.328,146.508 260.662,145.842 261.5,145.5 Z"/></g>
<g><path style="opacity:0.995" fill="#d2eadf" d="M 260.5,147.5 C 260.414,148.496 260.748,149.329 261.5,150C 266.773,151.288 272.106,152.122 277.5,152.5C 277.5,153.5 277.5,154.5 277.5,155.5C 277.068,156.71 276.401,157.71 275.5,158.5C 275.586,157.504 275.252,156.671 274.5,156C 268.801,154.894 263.134,153.727 257.5,152.5C 257.5,152.167 257.5,151.833 257.5,151.5C 258.026,149.77 259.026,148.436 260.5,147.5 Z"/></g>
<g><path style="opacity:1" fill="#e4f2ec" d="M 257.5,151.5 C 257.5,151.833 257.5,152.167 257.5,152.5C 258.058,153.79 259.058,154.623 260.5,155C 264.514,155.769 268.514,156.603 272.5,157.5C 273.713,157.747 274.38,158.414 274.5,159.5C 274.672,160.492 274.338,161.158 273.5,161.5C 273.5,161.167 273.5,160.833 273.5,160.5C 273.389,159.883 273.056,159.383 272.5,159C 266.724,158.045 261.057,156.712 255.5,155C 256.252,154.329 256.586,153.496 256.5,152.5C 256.5,151.833 256.833,151.5 257.5,151.5 Z"/></g>
<g><path style="opacity:1" fill="#dceee6" d="M 257.5,152.5 C 263.134,153.727 268.801,154.894 274.5,156C 275.252,156.671 275.586,157.504 275.5,158.5C 275.5,159.167 275.167,159.5 274.5,159.5C 274.38,158.414 273.713,157.747 272.5,157.5C 268.514,156.603 264.514,155.769 260.5,155C 259.058,154.623 258.058,153.79 257.5,152.5 Z"/></g>
<g><path style="opacity:1" fill="#edf6f2" d="M 256.5,152.5 C 256.586,153.496 256.252,154.329 255.5,155C 261.057,156.712 266.724,158.045 272.5,159C 273.056,159.383 273.389,159.883 273.5,160.5C 268.106,160.122 262.773,159.288 257.5,158C 255.937,157.241 254.937,156.074 254.5,154.5C 254.833,153.5 255.5,152.833 256.5,152.5 Z"/></g>
<g><path style="opacity:1" fill="#f5faf8" d="M 254.5,154.5 C 254.937,156.074 255.937,157.241 257.5,158C 262.773,159.288 268.106,160.122 273.5,160.5C 273.5,160.833 273.5,161.167 273.5,161.5C 273.5,162.167 273.167,162.5 272.5,162.5C 266.568,161.046 260.568,159.713 254.5,158.5C 253.287,158.253 252.62,157.586 252.5,156.5C 252.833,155.5 253.5,154.833 254.5,154.5 Z"/></g>
</svg>
